pose8
version=1
nRows=4
nColumns=213
inDegrees=yes
endheader
time	platform_rx	platform_ry	platform_rz	platform_ty	pelvis_tilt	pelvis_list	pelvis_rotation	pelvis_tx	pelvis_ty	pelvis_tz	hip_flexion_r	hip_adduction_r	hip_rotation_r	knee_angle_r	knee_angle_r_beta	ankle_angle_r	subtalar_angle_r	mtp_angle_r	hip_flexion_l	hip_adduction_l	hip_rotation_l	knee_angle_l	knee_angle_l_beta	ankle_angle_l	subtalar_angle_l	mtp_angle_l	lumbar_extension	lumbar_bending	lumbar_rotation	arm_flex_r	arm_add_r	arm_rot_r	elbow_flex_r	pro_sup_r	wrist_flex_r	wrist_dev_r	arm_flex_l	arm_add_l	arm_rot_l	elbow_flex_l	pro_sup_l	wrist_flex_l	wrist_dev_l	platform_rx_u	platform_ry_u	platform_rz_u	platform_ty_u	pelvis_tilt_u	pelvis_list_u	pelvis_rotation_u	pelvis_tx_u	pelvis_ty_u	pelvis_tz_u	hip_flexion_r_u	hip_adduction_r_u	hip_rotation_r_u	knee_angle_r_u	knee_angle_r_beta_u	ankle_angle_r_u	subtalar_angle_r_u	mtp_angle_r_u	hip_flexion_l_u	hip_adduction_l_u	hip_rotation_l_u	knee_angle_l_u	knee_angle_l_beta_u	ankle_angle_l_u	subtalar_angle_l_u	mtp_angle_l_u	lumbar_extension_u	lumbar_bending_u	lumbar_rotation_u	arm_flex_r_u	arm_add_r_u	arm_rot_r_u	elbow_flex_r_u	pro_sup_r_u	wrist_flex_r_u	wrist_dev_r_u	arm_flex_l_u	arm_add_l_u	arm_rot_l_u	elbow_flex_l_u	pro_sup_l_u	wrist_flex_l_u	wrist_dev_l_u	addbrev_r.activation	addlong_r.activation	addlong_r.fiber_length	addmagDist_r.activation	addmagIsch_r.activation	addmagIsch_r.fiber_length	addmagMid_r.activation	addmagProx_r.activation	bflh_r.activation	bflh_r.fiber_length	bfsh_r.activation	edl_r.activation	edl_r.fiber_length	ehl_r.activation	ehl_r.fiber_length	fdl_r.activation	fdl_r.fiber_length	fhl_r.activation	fhl_r.fiber_length	gaslat_r.activation	gaslat_r.fiber_length	gasmed_r.activation	gasmed_r.fiber_length	glmax1_r.activation	glmax2_r.activation	glmax3_r.activation	glmed1_r.activation	glmed2_r.activation	glmed3_r.activation	glmin1_r.activation	glmin2_r.activation	glmin3_r.activation	glmin3_r.fiber_length	grac_r.activation	iliacus_r.activation	perbrev_r.activation	perbrev_r.fiber_length	perlong_r.activation	perlong_r.fiber_length	piri_r.activation	piri_r.fiber_length	psoas_r.activation	recfem_r.activation	recfem_r.fiber_length	sart_r.activation	semimem_r.activation	semimem_r.fiber_length	semiten_r.activation	semiten_r.fiber_length	soleus_r.activation	soleus_r.fiber_length	tfl_r.activation	tfl_r.fiber_length	tibant_r.activation	tibant_r.fiber_length	tibpost_r.activation	tibpost_r.fiber_length	vasint_r.activation	vasint_r.fiber_length	vaslat_r.activation	vaslat_r.fiber_length	vasmed_r.activation	vasmed_r.fiber_length	addbrev_l.activation	addlong_l.activation	addlong_l.fiber_length	addmagDist_l.activation	addmagIsch_l.activation	addmagIsch_l.fiber_length	addmagMid_l.activation	addmagProx_l.activation	bflh_l.activation	bflh_l.fiber_length	bfsh_l.activation	edl_l.activation	edl_l.fiber_length	ehl_l.activation	ehl_l.fiber_length	fdl_l.activation	fdl_l.fiber_length	fhl_l.activation	fhl_l.fiber_length	gaslat_l.activation	gaslat_l.fiber_length	gasmed_l.activation	gasmed_l.fiber_length	glmax1_l.activation	glmax2_l.activation	glmax3_l.activation	glmed1_l.activation	glmed2_l.activation	glmed3_l.activation	glmin1_l.activation	glmin2_l.activation	glmin3_l.activation	glmin3_l.fiber_length	grac_l.activation	iliacus_l.activation	perbrev_l.activation	perbrev_l.fiber_length	perlong_l.activation	perlong_l.fiber_length	piri_l.activation	piri_l.fiber_length	psoas_l.activation	recfem_l.activation	recfem_l.fiber_length	sart_l.activation	semimem_l.activation	semimem_l.fiber_length	semiten_l.activation	semiten_l.fiber_length	soleus_l.activation	soleus_l.fiber_length	tfl_l.activation	tfl_l.fiber_length	tibant_l.activation	tibant_l.fiber_length	tibpost_l.activation	tibpost_l.fiber_length	vasint_l.activation	vasint_l.fiber_length	vaslat_l.activation	vaslat_l.fiber_length	vasmed_l.activation	vasmed_l.fiber_length
      0.00932780	     20.00000000	      0.00000000	      0.00000000	      0.25000000	     -9.85750591	     -0.01032519	     -0.00786922	      0.07804205	      0.86754145	      0.00003613	     37.00525630	    -11.09024249	    -10.08524895	     44.39453963	     44.39453963	     11.59160917	     -1.21740110	      0.00000000	     37.00024941	    -11.15402925	    -10.08692922	     44.39862188	     44.39862188	     11.84887850	      0.00000000	     -0.00000000	     -0.55396654	      0.00938433	      0.00791045	     43.09863160	     -0.00468818	     89.90125284	      0.11661346	      0.09824526	     -0.00000000	      0.00000000	     43.09919706	     -0.00699050	     89.90263390	      0.11777030	      0.09848160	     -0.00000000	      0.00000000	     -0.00000000	      0.00000000	      0.00000000	     -0.00000000	     98.24762720	     -1.81166158	     -1.32081176	      0.01310695	      0.11326885	      0.00645703	   -127.84867957	      3.21755221	    -18.50751861	    -76.01988903	    -76.01988903	   -935.62510504	   -224.20825468	      0.00000000	   -128.67480860	     -8.15714069	    -18.73828606	    -75.14480410	    -75.14480410	   -890.61275075	      0.00000000	     -0.00000000	   -118.06537687	      1.60533813	      1.34728459	     20.63452967	     -0.97163549	     -0.71933872	      3.24928926	     -0.40811237	     -0.00000000	      0.00000000	     20.75045213	     -1.44352004	     -0.50340036	      3.48623448	     -0.35969191	     -0.00000000	      0.00000000	      0.01000000	      0.01000000	      0.09924054	      0.01000000	      0.01000000	      0.16626366	      0.01000000	      0.01000000	      0.01000000	      0.10390652	      0.01000000	      0.01000000	      0.06134907	      0.01000000	      0.07010896	      0.01000000	      0.04688593	      0.01000000	      0.05427238	      0.01000000	      0.06504845	      0.01000000	      0.05648335	      0.01000000	      0.01000000	      0.01000000	      0.01000000	      0.01000000	      0.01000000	      0.01000000	      0.01000000	      0.01000000	      0.03942116	      0.01000000	      0.01000000	      0.01000000	      0.04918604	      0.01000000	      0.05542068	      0.01000000	      0.02342950	      0.01000000	      0.01000000	      0.06900077	      0.01000000	      0.01000000	      0.07083545	      0.01000000	      0.21805325	      0.01000000	      0.05471498	      0.01000000	      0.07477858	      0.01000000	      0.05748266	      0.01000000	      0.04095986	      0.01000000	      0.11210088	      0.01000000	      0.11030035	      0.01000000	      0.10906159	      0.01000000	      0.01000000	      0.09931396	      0.01000000	      0.01000000	      0.16629634	      0.01000000	      0.01000000	      0.01000000	      0.10391598	      0.01000000	      0.01000000	      0.06147242	      0.01000000	      0.06997231	      0.01000000	      0.04675498	      0.01000000	      0.05414342	      0.01000000	      0.06509206	      0.01000000	      0.05656499	      0.01000000	      0.01000000	      0.01000000	      0.01000000	      0.01000000	      0.01000000	      0.01000000	      0.01000000	      0.01000000	      0.03938431	      0.01000000	      0.01000000	      0.01000000	      0.04967566	      0.01000000	      0.05580687	      0.01000000	      0.02340453	      0.01000000	      0.01000000	      0.06899215	      0.01000000	      0.01000000	      0.07084115	      0.01000000	      0.21807079	      0.01000000	      0.05476208	      0.01000000	      0.07473162	      0.01000000	      0.05714708	      0.01000000	      0.04079024	      0.01000000	      0.11210298	      0.01000000	      0.11030236	      0.01000000	      0.10906349
      0.01031775	     20.00000000	      0.00000000	      0.00000000	      0.25000000	     -9.75507653	     -0.01214744	     -0.00918575	      0.07805645	      0.86765903	      0.00004264	     36.87147058	    -11.08693822	    -10.10458802	     44.31449396	     44.31449396	     10.63628965	     -1.44472220	      0.00000000	     36.86564325	    -11.16219658	    -10.10649605	     44.31945554	     44.31945554	     10.93873190	      0.00000000	     -0.00000000	     -0.67693717	      0.01099110	      0.00925788	     43.12005474	     -0.00569600	     89.90050098	      0.11998134	      0.09785532	     -0.00000000	      0.00000000	     43.12073983	     -0.00848516	     89.90210492	      0.12138265	      0.09814162	     -0.00000000	      0.00000000	     -0.00000000	      0.00000000	      0.00000000	     -0.00000000	    108.69163818	     -1.86507463	     -1.33432022	      0.01603034	      0.12424743	      0.00668737	   -142.47457576	      3.45453341	    -20.56601606	    -85.73966790	    -85.73966790	   -992.96742703	   -234.59452284	     -0.00000000	   -143.30328953	     -8.31870969	    -20.79382638	    -84.84197468	    -84.84197468	   -946.83476842	      0.00000000	      0.00000000	   -130.36450236	      1.63606783	      1.37045601	     22.64062472	     -1.06405214	     -0.79990242	      3.55337149	     -0.37646932	     -0.00000000	      0.00000000	     22.76630880	     -1.57540316	     -0.56572957	      3.81017002	     -0.32399434	     -0.00000000	      0.00000000	      0.01000000	      0.01000000	      0.09930888	      0.01000000	      0.01000000	      0.16613831	      0.01000000	      0.01000000	      0.01000000	      0.10383221	      0.01000000	      0.01000000	      0.06186809	      0.01000000	      0.07073745	      0.01000000	      0.04686934	      0.01000000	      0.05417979	      0.01000000	      0.06454840	      0.01000000	      0.05599882	      0.01000000	      0.01000000	      0.01000000	      0.01000000	      0.01000000	      0.01000000	      0.01000000	      0.01000000	      0.01000000	      0.03939258	      0.01000000	      0.01000000	      0.01000000	      0.04901674	      0.01000000	      0.05523692	      0.01000000	      0.02340001	      0.01000000	      0.01000000	      0.06904434	      0.01000000	      0.01000000	      0.07079295	      0.01000000	      0.21798396	      0.01000000	      0.05428981	      0.01000000	      0.07487576	      0.01000000	      0.05821252	      0.01000000	      0.04092471	      0.01000000	      0.11205581	      0.01000000	      0.11025681	      0.01000000	      0.10902108	      0.01000000	      0.01000000	      0.09940123	      0.01000000	      0.01000000	      0.16617764	      0.01000000	      0.01000000	      0.01000000	      0.10384387	      0.01000000	      0.01000000	      0.06201860	      0.01000000	      0.07057214	      0.01000000	      0.04669836	      0.01000000	      0.05401967	      0.01000000	      0.06459990	      0.01000000	      0.05609646	      0.01000000	      0.01000000	      0.01000000	      0.01000000	      0.01000000	      0.01000000	      0.01000000	      0.01000000	      0.01000000	      0.03934829	      0.01000000	      0.01000000	      0.01000000	      0.04960608	      0.01000000	      0.05570957	      0.01000000	      0.02336883	      0.01000000	      0.01000000	      0.06903335	      0.01000000	      0.01000000	      0.07080003	      0.01000000	      0.21800491	      0.01000000	      0.05434698	      0.01000000	      0.07481818	      0.01000000	      0.05780825	      0.01000000	      0.04070835	      0.01000000	      0.11205846	      0.01000000	      0.11025935	      0.01000000	      0.10902348
      0.01115895	     20.00000000	      0.00000000	      0.00000000	      0.25000000	     -9.65990749	     -0.01372865	     -0.01030777	      0.07807107	      0.86776742	      0.00004833	     36.74633023	    -11.08395016	    -10.12262626	     44.23882664	     44.23882664	      9.78293204	     -1.64501401	      0.00000000	     36.73980800	    -11.16921443	    -10.12472855	     44.24454537	     44.24454537	     10.12439111	      0.00000000	     -0.00000000	     -0.79098581	      0.01237176	      0.01041409	     43.13980752	     -0.00662370	     89.89979892	      0.12307683	      0.09755559	     -0.00000000	      0.00000000	     43.14060157	     -0.00985604	     89.90160588	      0.12470072	      0.09788736	     -0.00000000	      0.00000000	     -0.00000000	      0.00000000	      0.00000000	     -0.00000000	    117.58025761	     -1.89166120	     -1.33157366	      0.01875819	      0.13341047	      0.00682115	   -155.08019741	      3.64914343	    -22.32123134	    -94.19045514	    -94.19045514	  -1034.91964067	   -241.28586546	     -0.00000000	   -155.90258330	     -8.35140600	    -22.55813292	    -93.29069135	    -93.29069135	   -988.37019724	      0.00000000	      0.00000000	   -140.78844591	      1.64397070	      1.37687692	     24.31874951	     -1.14146985	     -0.86943939	      3.80537064	     -0.33369523	     -0.00000000	      0.00000000	     24.45197771	     -1.68325263	     -0.62115756	      4.07748926	     -0.27809635	     -0.00000000	      0.00000000	      0.01000000	      0.01000000	      0.09937337	      0.01000000	      0.01000000	      0.16602030	      0.01000000	      0.01000000	      0.01000000	      0.10376169	      0.01000000	      0.01000000	      0.06233497	      0.01000000	      0.07130248	      0.01000000	      0.04685275	      0.01000000	      0.05409310	      0.01000000	      0.06409977	      0.01000000	      0.05556410	      0.01000000	      0.01000000	      0.01000000	      0.01000000	      0.01000000	      0.01000000	      0.01000000	      0.01000000	      0.01000000	      0.03936547	      0.01000000	      0.01000000	      0.01000000	      0.04886517	      0.01000000	      0.05507058	      0.01000000	      0.02337141	      0.01000000	      0.01000000	      0.06908641	      0.01000000	      0.01000000	      0.07075217	      0.01000000	      0.21791951	      0.01000000	      0.05389899	      0.01000000	      0.07496758	      0.01000000	      0.05886339	      0.01000000	      0.04089065	      0.01000000	      0.11201265	      0.01000000	      0.11021505	      0.01000000	      0.10898235	      0.01000000	      0.01000000	      0.09947246	      0.01000000	      0.01000000	      0.16606548	      0.01000000	      0.01000000	      0.01000000	      0.10377533	      0.01000000	      0.01000000	      0.06251022	      0.01000000	      0.07111146	      0.01000000	      0.04664377	      0.01000000	      0.05390555	      0.01000000	      0.06415769	      0.01000000	      0.05567487	      0.01000000	      0.01000000	      0.01000000	      0.01000000	      0.01000000	      0.01000000	      0.01000000	      0.01000000	      0.01000000	      0.03931468	      0.01000000	      0.01000000	      0.01000000	      0.04954225	      0.01000000	      0.05561975	      0.01000000	      0.02333476	      0.01000000	      0.01000000	      0.06907332	      0.01000000	      0.01000000	      0.07076054	      0.01000000	      0.21794351	      0.01000000	      0.05396512	      0.01000000	      0.07490077	      0.01000000	      0.05840294	      0.01000000	      0.04063176	      0.01000000	      0.11201578	      0.01000000	      0.11021806	      0.01000000	      0.10898517
      0.01200015	     20.00000000	      0.00000000	      0.00000000	      0.25000000	     -9.55725879	     -0.01532420	     -0.01142060	      0.07808807	      0.86788344	      0.00005410	     36.61052291	    -11.08080315	    -10.14214269	     44.15598935	     44.15598935	      8.89686428	     -1.85010881	      0.00000000	     36.60331477	    -11.17621753	    -10.14444819	     44.16245929	     44.16245929	      9.27748051	      0.00000000	     -0.00000000	     -0.91378930	      0.01375123	      0.01156913	     43.16096136	     -0.00761592	     89.89903787	      0.12638168	      0.09729813	     -0.00000000	      0.00000000	     43.16187049	     -0.01131612	     89.90105931	      0.12824058	      0.09767792	     -0.00000000	      0.00000000	     -0.00000000	      0.00000000	      0.00000000	     -0.00000000	    126.47248132	     -1.89834134	     -1.31087939	      0.02169850	      0.14240528	      0.00688900	   -167.83182346	      3.83022294	    -24.08090692	   -102.78008088	   -102.78008088	  -1070.76466299	   -246.01796564	     -0.00000000	   -168.63863425	     -8.28132780	    -24.32593436	   -101.89720296	   -101.89720296	  -1024.29461056	      0.00000000	      0.00000000	   -151.17687414	      1.63232297	      1.36603229	     25.97137142	     -1.21728186	     -0.94023364	      4.05102382	     -0.27593157	     -0.00000000	      0.00000000	     26.11170076	     -1.78764847	     -0.67865529	      4.33754478	     -0.21740261	     -0.00000000	      0.00000000	      0.01000000	      0.01000000	      0.09944391	      0.01000000	      0.01000000	      0.16589164	      0.01000000	      0.01000000	      0.01000000	      0.10368442	      0.01000000	      0.01000000	      0.06282240	      0.01000000	      0.07189250	      0.01000000	      0.04683370	      0.01000000	      0.05399965	      0.01000000	      0.06363479	      0.01000000	      0.05511766	      0.01000000	      0.01000000	      0.01000000	      0.01000000	      0.01000000	      0.01000000	      0.01000000	      0.01000000	      0.01000000	      0.03933574	      0.01000000	      0.01000000	      0.01000000	      0.04870776	      0.01000000	      0.05489631	      0.01000000	      0.02333957	      0.01000000	      0.01000000	      0.06913287	      0.01000000	      0.01000000	      0.07070707	      0.01000000	      0.21784995	      0.01000000	      0.05348314	      0.01000000	      0.07506771	      0.01000000	      0.05954143	      0.01000000	      0.04085281	      0.01000000	      0.11196488	      0.01000000	      0.11016878	      0.01000000	      0.10893953	      0.01000000	      0.01000000	      0.09956195	      0.01000000	      0.01000000	      0.16594280	      0.01000000	      0.01000000	      0.01000000	      0.10370012	      0.01000000	      0.01000000	      0.06302381	      0.01000000	      0.07167461	      0.01000000	      0.04658357	      0.01000000	      0.05378419	      0.01000000	      0.06369869	      0.01000000	      0.05523873	      0.01000000	      0.01000000	      0.01000000	      0.01000000	      0.01000000	      0.01000000	      0.01000000	      0.01000000	      0.01000000	      0.03927832	      0.01000000	      0.01000000	      0.01000000	      0.04947443	      0.01000000	      0.05552404	      0.01000000	      0.02329738	      0.01000000	      0.01000000	      0.06911761	      0.01000000	      0.01000000	      0.07071682	      0.01000000	      0.21787709	      0.01000000	      0.05355837	      0.01000000	      0.07499155	      0.01000000	      0.05902247	      0.01000000	      0.04054926	      0.01000000	      0.11196851	      0.01000000	      0.11017228	      0.01000000	      0.10894279
